<?xml version="1.0" encoding="UTF-8" standalone="no"?>
<!-- Created with Inkscape (http://www.inkscape.org/) -->

<svg
   version="1.1"
   id="svg48"
   width="288"
   height="288"
   viewBox="0 0 288 288"
   sodipodi:docname="Sirened_icon.svg"
   xml:space="preserve"
   inkscape:version="1.2.2 (b0a8486541, 2022-12-01)"
   xmlns:inkscape="http://www.inkscape.org/namespaces/inkscape"
   xmlns:sodipodi="http://sodipodi.sourceforge.net/DTD/sodipodi-0.dtd"
   xmlns="http://www.w3.org/2000/svg"
   xmlns:svg="http://www.w3.org/2000/svg"><defs
     id="defs52"><rect
       x="134.06659"
       y="99.282379"
       width="104.59521"
       height="39.675751"
       id="rect353" /><rect
       x="130.8945"
       y="97.97055"
       width="94.87854"
       height="40.813263"
       id="rect4370" /><rect
       x="137.59912"
       y="104.41943"
       width="115.81711"
       height="32.824097"
       id="rect1277" /><linearGradient
       id="linearGradient945"
       inkscape:swatch="solid"><stop
         style="stop-color:#000000;stop-opacity:1;"
         offset="0"
         id="stop943" /></linearGradient></defs><sodipodi:namedview
     id="namedview50"
     pagecolor="#ffffff"
     bordercolor="#000000"
     borderopacity="0.25"
     inkscape:showpageshadow="2"
     inkscape:pageopacity="0.0"
     inkscape:pagecheckerboard="0"
     inkscape:deskcolor="#d1d1d1"
     showgrid="false"
     inkscape:zoom="4"
     inkscape:cx="187.75"
     inkscape:cy="117.375"
     inkscape:window-width="1399"
     inkscape:window-height="767"
     inkscape:window-x="307"
     inkscape:window-y="972"
     inkscape:window-maximized="0"
     inkscape:current-layer="g54" /><g
     inkscape:groupmode="layer"
     inkscape:label="Image"
     id="g54"><path
       style="display:none;fill:#000000;fill-opacity:1;stroke:#000000;stroke-width:1.9;stroke-dasharray:none;stroke-opacity:0.994259"
       d="M 88.643579,102.02454 C 141.12386,89.047068 195.98107,77.381518 232.17966,90.379728 l -2.71272,1.13001 C 188.30457,79.037708 82.197485,107.73542 79.352853,117.63916 Z"
       id="path1220"
       sodipodi:nodetypes="ccccc" /><path
       style="fill:#a06cd5;fill-opacity:1;stroke:#a06cd5;stroke-width:3.91527;stroke-dasharray:none;stroke-opacity:1"
       d="M 141.26436,12.324869 C 123.68302,74.51394 69.772283,98.826104 27.648113,127.48109 l 2.545736,7.36736 C 228.06134,85.209221 184.59233,244.95995 128.68185,280.25365 l 10.62719,-9.02025 C 227.69059,194.41899 195.64497,111.17945 64.079003,117.37596 148.46733,40.237386 145.31013,16.626376 143.55749,14.719713 Z"
       id="path1106"
       sodipodi:nodetypes="cccccccc" /><path
       style="fill:#a06cd5;fill-opacity:1;stroke:#a06cd5;stroke-width:3.91527;stroke-dasharray:none;stroke-opacity:1"
       d="m 218.31421,13.097011 c -32.52767,53.281564 -63.32348,62.870143 -94.46768,81.248213 l 3.56345,4.808794 c 135.8649,29.887942 39.18969,85.436652 39.96016,141.792702 l 18.26851,-31.10235 c 7.80293,-33.70085 70.86824,-80.55568 -35.61641,-118.010749 45.46607,-31.991302 56.24584,-53.608929 70.14566,-76.159673 z"
       id="path1162"
       sodipodi:nodetypes="cccccccc" /><path
       style="fill:#a06cd5;fill-opacity:1;stroke:#a06cd5;stroke-width:3.91527;stroke-dasharray:none;stroke-opacity:1"
       d="m 260.97558,34.111701 c -16.05587,24.920862 -33.8592,43.62146 -54.38255,52.639736 1.95629,0.872919 2.78889,1.063543 3.57275,1.556174 59.70179,25.137789 20.5468,41.290999 -29.08294,130.270379 l -16.99133,25.77229 C 199.34822,169.52634 283.93783,128.33272 224.80572,87.253849 243.22224,68.951767 254.02975,53.706344 262.16051,35.907593 Z"
       id="path1164"
       sodipodi:nodetypes="cccccccc" /><text
       xml:space="preserve"
       id="text1275"
       style="white-space:pre;shape-inside:url(#rect1277);display:inline;fill:#a06cd5;fill-opacity:1;stroke:#a06cd5;stroke-width:1.9;stroke-dasharray:none;stroke-opacity:1" /><text
       xml:space="preserve"
       id="text4368"
       style="font-style:normal;font-variant:normal;font-weight:normal;font-stretch:normal;font-family:Z003;-inkscape-font-specification:Z003;white-space:pre;shape-inside:url(#rect4370);display:inline;fill:#a06cd5;fill-opacity:1;stroke:#a06cd5;stroke-width:1.9;stroke-dasharray:none;stroke-opacity:1" /><text
       xml:space="preserve"
       id="text351"
       style="font-style:normal;font-variant:normal;font-weight:normal;font-stretch:normal;font-family:'Eagle Lake';-inkscape-font-specification:'Eagle Lake';white-space:pre;shape-inside:url(#rect353);display:none;fill:#000000;stroke-width:1.9;stroke-opacity:0.994259" /><g
       aria-label="irened"
       id="text359"
       style="font-size:29.3333px;font-family:'Eagle Lake';-inkscape-font-specification:'Eagle Lake';display:none;stroke-width:1.9;stroke-opacity:0.994259"><path
         d="m 124.043,57.367167 q 0,0.415364 0.0143,0.802083 0.0143,0.372395 0.0143,0.730468 0,0.845051 -0.14322,1.446613 -0.14323,0.601561 -0.67318,0.959634 -0.3151,0.229166 -0.78776,0.529947 -0.78776,0.515625 -2.53515,1.575519 0.17187,-0.458333 0.24349,-1.102863 0.0859,-0.658853 0.11458,-1.246092 0.0286,-0.6875 0,-1.43229 0.90234,-0.472656 1.58984,-0.873697 0.6875,-0.415364 1.17448,-0.730468 0.57291,-0.358073 0.98828,-0.658854 z m 5.04166,24.406222 q -1.63281,1.074218 -2.77864,1.690103 -1.13151,0.615884 -1.94792,0.916665 -0.8164,0.300781 -1.375,0.34375 -0.55859,0.04297 -1.01692,-0.04297 -0.41537,-0.07161 -0.81641,-0.214843 -0.40104,-0.143229 -0.73047,-0.515625 -0.3151,-0.386718 -0.51562,-1.102863 -0.20052,-0.716145 -0.20052,-1.947915 0,-1.031248 0.0573,-2.033851 0.0573,-1.016926 0.11458,-2.005206 0.0716,-1.002603 0.10026,-1.976561 0.043,-0.98828 0.0143,-1.962237 -0.0286,-0.945311 -0.34375,-1.374998 -0.31511,-0.44401 -0.94531,-0.44401 -0.24349,0 -0.52995,0.05729 -0.28646,0.05729 -0.61589,0.171875 0.51563,-0.358072 1.0599,-0.716145 0.54427,-0.372395 1.10286,-0.658853 0.5586,-0.286458 1.11719,-0.458333 0.57291,-0.186198 1.13151,-0.186198 0.60156,0 1.04557,0.272135 0.45833,0.272135 0.58724,0.902343 0.043,0.243489 0.0573,0.716145 0.0286,0.472656 0.0286,1.102863 0,0.930989 -0.043,2.062498 -0.0286,1.131509 -0.0716,2.234372 -0.043,1.088541 -0.0859,2.019529 -0.043,0.916666 -0.0573,1.417967 -0.0143,0.472656 0.17188,0.945312 0.1862,0.472656 0.54427,0.859374 0.37239,0.372395 0.90234,0.615885 0.54427,0.229166 1.23177,0.229166 0.60156,0 1.30338,-0.214844 0.70183,-0.214843 1.50391,-0.701822 z"
         id="path1136" /><path
         d="m 134.69924,72.535119 q 0.67317,-0.644531 1.46093,-1.289061 0.80208,-0.644531 1.61849,-1.160155 0.83073,-0.529948 1.66146,-0.859374 0.83072,-0.329427 1.56119,-0.329427 0.5013,0 0.97396,0.114583 0.48698,0.100261 0.94531,0.24349 0.47266,0.128906 0.93099,0.243489 0.45833,0.10026 0.93099,0.10026 0.28646,0 0.60156,-0.04297 0.3151,-0.04297 0.71614,-0.157551 -0.90234,0.687499 -1.57551,1.1888 -0.67318,0.501302 -1.26042,0.830728 -0.58724,0.315104 -1.17448,0.472656 -0.57291,0.143229 -1.28906,0.114583 -0.70182,-0.01432 -1.33203,-0.143229 -0.61588,-0.128906 -1.13151,-0.257812 -0.5013,-0.143229 -0.88802,-0.20052 -0.37239,-0.07161 -0.58724,0.04297 -0.51562,0.257812 -0.90234,0.945312 -0.38672,0.687499 -0.65885,1.63281 -0.25781,0.945312 -0.42969,2.048175 -0.15755,1.102863 -0.24349,2.205727 -0.0716,1.102863 -0.0716,2.105466 0,0.98828 0.0573,1.718748 -1.07422,0.687499 -1.77604,1.188801 -0.70182,0.501301 -1.11719,0.830728 -0.48698,0.386718 -0.74479,0.673176 0.0143,-0.859374 0.043,-2.07682 0.0286,-1.23177 0.043,-2.578122 0.0286,-1.346353 0.043,-2.66406 0.0143,-1.332029 0.0143,-2.391924 0,-0.673176 -0.043,-1.360676 -0.0286,-0.701822 -0.22916,-1.274738 -0.20052,-0.572916 -0.63021,-0.930988 -0.41537,-0.358073 -1.1888,-0.358073 -0.30078,0 -0.63021,0.07161 -0.3151,0.05729 -0.63021,0.214843 0.60156,-0.401041 1.20313,-0.816405 0.60156,-0.415364 1.20312,-0.744791 0.61588,-0.343749 1.21745,-0.54427 0.61588,-0.214844 1.24609,-0.214844 0.75911,0 1.17448,0.329427 0.42968,0.329427 0.61588,0.830728 0.20052,0.501302 0.22917,1.102864 0.043,0.601561 0.043,1.145832 z"
         id="path1138" /><path
         d="m 163.13019,70.458298 q -1.64713,0.802083 -3.0651,1.43229 -1.40364,0.615885 -2.47786,1.045572 -1.24609,0.501301 -2.29166,0.88802 -0.64453,0.272135 -1.43229,0.558593 -0.77344,0.272135 -1.61849,0.54427 -0.84505,0.257812 -1.73307,0.529947 -0.8737,0.257813 -1.73307,0.515625 v 0.286458 q 0,1.475258 0.45833,2.649736 0.47266,1.174478 1.30338,2.005206 0.83073,0.816406 1.99089,1.260416 1.16015,0.429687 2.5638,0.429687 0.73047,0 1.44661,-0.114584 0.73047,-0.114583 1.375,-0.300781 0.65885,-0.20052 1.23177,-0.472655 0.57291,-0.272135 1.01692,-0.587239 -1.08854,0.973957 -2.24869,1.63281 -1.14583,0.658854 -2.30599,1.074218 -1.14583,0.401041 -2.27734,0.587239 -1.11719,0.186198 -2.14843,0.20052 -1.04558,0.02865 -2.0625,-0.329426 -1.00261,-0.34375 -1.83333,-1.059895 -0.83073,-0.716145 -1.40365,-1.776039 -0.57291,-1.074218 -0.74479,-2.492185 -0.0716,-0.501302 -0.0716,-0.959634 0.0143,-0.472656 0.10026,-0.930989 -0.5013,0.186198 -0.91667,0.34375 -0.40104,0.157552 -0.65885,0.315103 0.41536,-0.286458 0.83073,-0.529947 0.41536,-0.257812 0.8164,-0.472656 0.24349,-1.117186 0.83073,-2.134112 0.60156,-1.016926 1.43229,-1.890622 0.84505,-0.873697 1.8763,-1.57552 1.03125,-0.716145 2.13411,-1.217446 1.11719,-0.501302 2.26302,-0.773437 1.14583,-0.272135 2.22005,-0.272135 0.71614,0 1.20312,0.214844 0.50131,0.214843 0.67318,0.759113 0.0859,0.572916 -0.41536,1.23177 -0.21485,0.286458 -0.58724,0.615885 -0.35808,0.315103 -0.94531,0.673176 -0.57292,0.358072 -1.38933,0.744791 -0.80208,0.386718 -1.90494,0.773436 z m -11.35806,3.480465 q 0.61589,-0.272135 1.10287,-0.587239 0.5013,-0.315104 0.77343,-0.658853 0.28646,-0.34375 0.30079,-0.716145 0.0143,-0.372396 -0.30079,-0.78776 -0.21484,-0.315104 -0.60156,-0.429687 -0.37239,-0.128906 -0.77343,-0.128906 -0.3724,0 -0.71615,0.08594 -0.34375,0.07161 -0.60156,0.200521 -0.17188,0.10026 -0.47266,0.44401 -0.30078,0.329427 -0.61588,0.873697 -0.31511,0.529947 -0.60156,1.246092 -0.27214,0.701822 -0.40104,1.546873 0.90234,-0.329426 1.63281,-0.587239 0.73046,-0.257812 1.27473,-0.501301 z"
         id="path1140" /><path
         d="m 167.34113,82.532503 -3.42318,2.463539 q 0.12891,-2.76432 0.20052,-4.712234 0.0716,-1.947915 0.10026,-3.20833 0.043,-1.475259 0.043,-2.434893 0.0716,-1.733071 -0.47265,-2.707028 -0.54427,-0.98828 -1.66146,-0.98828 -0.35807,0 -0.75911,0.114583 -0.38672,0.10026 -0.83073,0.300781 0.55859,-0.401041 1.17448,-0.816405 0.61588,-0.429687 1.26041,-0.773437 0.64453,-0.34375 1.28906,-0.558593 0.65886,-0.229167 1.28906,-0.229167 0.60156,0 1.08854,0.24349 0.5013,0.243489 0.75912,0.816405 0.22916,0.486979 0.3151,1.08854 0.10026,0.601562 0.12891,1.317707 0.73046,-0.773436 1.63281,-1.446613 0.91666,-0.673176 1.90494,-1.145832 0.98828,-0.472655 1.99089,-0.701822 1.0026,-0.229166 1.89062,-0.114583 0.64453,0.08594 1.33203,0.358073 0.70182,0.272135 1.27474,0.830728 0.58724,0.558593 0.94531,1.475258 0.35807,0.902343 0.32942,2.263019 -0.043,1.604165 -0.14322,2.950517 -0.10026,1.33203 -0.10026,2.363279 0,0.615884 0.10026,1.174478 0.10026,0.54427 0.34375,0.959634 0.25781,0.401041 0.68749,0.64453 0.42969,0.24349 1.07422,0.24349 0.57292,0 1.20313,-0.214844 0.64453,-0.229166 1.28906,-0.687499 -1.04557,0.930988 -1.91927,1.561196 -0.85938,0.630208 -1.60417,1.016926 -0.74479,0.386718 -1.38932,0.54427 -0.64453,0.171875 -1.24609,0.157552 -0.60156,-0.01432 -1.03125,-0.243489 -0.42969,-0.214844 -0.6875,-0.673177 -0.25781,-0.472655 -0.35807,-1.203123 -0.10026,-0.744791 -0.0716,-1.819008 0.043,-0.945312 0.11459,-2.076821 0.0716,-1.145832 0.0716,-2.263018 0,-1.274738 -0.17187,-2.191404 -0.17188,-0.916666 -0.63021,-1.503904 -0.44401,-0.601562 -1.24609,-0.88802 -0.78776,-0.286458 -2.03385,-0.286458 -0.90235,0 -1.53255,0.358072 -0.63021,0.34375 -1.04558,0.945312 -0.41536,0.601561 -0.65885,1.403644 -0.22917,0.787759 -0.35807,1.690102 -0.11459,0.88802 -0.15755,1.833331 -0.043,0.930989 -0.0716,1.804686 -0.0143,0.873697 -0.0573,1.647133 -0.043,0.759114 -0.17187,1.317707 z"
         id="path1142" /><path
         d="m 202.8476,70.458298 q -1.64714,0.802083 -3.0651,1.43229 -1.40365,0.615885 -2.47786,1.045572 -1.2461,0.501301 -2.29167,0.88802 -0.64453,0.272135 -1.43229,0.558593 -0.77344,0.272135 -1.61849,0.54427 -0.84505,0.257812 -1.73307,0.529947 -0.87369,0.257813 -1.73307,0.515625 v 0.286458 q 0,1.475258 0.45833,2.649736 0.47266,1.174478 1.30339,2.005206 0.83073,0.816406 1.99088,1.260416 1.16016,0.429687 2.5638,0.429687 0.73047,0 1.44661,-0.114584 0.73047,-0.114583 1.375,-0.300781 0.65886,-0.20052 1.23177,-0.472655 0.57292,-0.272135 1.01693,-0.587239 -1.08854,0.973957 -2.2487,1.63281 -1.14583,0.658854 -2.30598,1.074218 -1.14584,0.401041 -2.27735,0.587239 -1.11718,0.186198 -2.14843,0.20052 -1.04557,0.02865 -2.0625,-0.329426 -1.0026,-0.34375 -1.83333,-1.059895 -0.83073,-0.716145 -1.40364,-1.776039 -0.57292,-1.074218 -0.7448,-2.492185 -0.0716,-0.501302 -0.0716,-0.959634 0.0143,-0.472656 0.10026,-0.930989 -0.5013,0.186198 -0.91666,0.34375 -0.40105,0.157552 -0.65886,0.315103 0.41537,-0.286458 0.83073,-0.529947 0.41536,-0.257812 0.81641,-0.472656 0.24348,-1.117186 0.83072,-2.134112 0.60157,-1.016926 1.43229,-1.890622 0.84505,-0.873697 1.8763,-1.57552 1.03125,-0.716145 2.13412,-1.217446 1.11718,-0.501302 2.26301,-0.773437 1.14584,-0.272135 2.22005,-0.272135 0.71615,0 1.20313,0.214844 0.5013,0.214843 0.67317,0.759113 0.0859,0.572916 -0.41536,1.23177 -0.21484,0.286458 -0.58724,0.615885 -0.35807,0.315103 -0.94531,0.673176 -0.57292,0.358072 -1.38932,0.744791 -0.80208,0.386718 -1.90495,0.773436 z m -11.35806,3.480465 q 0.61588,-0.272135 1.10286,-0.587239 0.5013,-0.315104 0.77344,-0.658853 0.28646,-0.34375 0.30078,-0.716145 0.0143,-0.372396 -0.30078,-0.78776 -0.21485,-0.315104 -0.60156,-0.429687 -0.3724,-0.128906 -0.77344,-0.128906 -0.3724,0 -0.71615,0.08594 -0.34375,0.07161 -0.60156,0.200521 -0.17187,0.10026 -0.47265,0.44401 -0.30078,0.329427 -0.61589,0.873697 -0.3151,0.529947 -0.60156,1.246092 -0.27213,0.701822 -0.40104,1.546873 0.90234,-0.329426 1.63281,-0.587239 0.73047,-0.257812 1.27474,-0.501301 z"
         id="path1144" /><path
         d="m 222.75643,82.131462 q -1.93359,1.317707 -3.29427,1.890623 -1.36067,0.572916 -2.30598,0.572916 -0.38672,0 -0.80209,-0.128906 -0.40104,-0.114584 -0.77343,-0.401042 -0.3724,-0.300781 -0.6875,-0.787759 -0.30078,-0.501302 -0.47266,-1.260415 -0.70182,0.515624 -1.56119,1.016926 -0.84505,0.501301 -1.7474,0.902342 -0.90234,0.401041 -1.81901,0.644531 -0.90234,0.243489 -1.73307,0.243489 -1.40364,0 -2.52083,-0.572916 -1.11718,-0.558593 -1.90494,-1.489582 -0.77344,-0.930988 -1.20313,-2.119789 -0.41536,-1.1888 -0.41536,-2.449216 0,-1.403644 0.42969,-2.506507 0.44401,-1.117186 1.1888,-1.97656 0.75911,-0.873697 1.74739,-1.532551 0.98828,-0.673176 2.10547,-1.174478 1.11718,-0.501301 2.29166,-0.873697 1.17448,-0.386718 2.27734,-0.701822 0.10026,-0.01432 0.24349,-0.02864 0.11459,-0.01432 0.27214,-0.01432 0.17187,-0.01432 0.38672,-0.01432 0.40104,0 0.90234,0.05729 0.51562,0.04297 1.08854,0.171875 l 0.30078,-9.03775 q -0.0286,-0.787759 -0.28646,-1.346353 -0.11458,-0.229166 -0.28646,-0.429687 -0.17187,-0.214843 -0.42968,-0.329426 -0.24349,-0.114583 -0.60157,-0.128906 -0.34374,-0.01432 -0.80208,0.128906 0.5586,-0.257812 1.1888,-0.572916 0.63021,-0.329427 1.2461,-0.601562 0.6302,-0.286458 1.21744,-0.472656 0.60156,-0.20052 1.10287,-0.20052 0.54427,0 0.90234,0.286458 0.37239,0.286458 0.41536,0.888019 0.043,0.401042 0.043,1.102864 0.0143,0.701822 0.0143,1.675779 0,1.160155 -0.0286,2.592445 -0.0143,1.417967 -0.043,2.96484 -0.0286,1.546874 -0.0716,3.151038 -0.043,1.604165 -0.0716,3.136716 -0.0286,1.53255 -0.0573,2.921871 -0.0143,1.374999 -0.0143,2.463539 0,0.859374 0.10026,1.690102 0.11458,0.830729 0.42968,1.489582 0.32943,0.658853 0.90235,1.074217 0.58723,0.401042 1.54687,0.401042 0.35807,0 0.74479,-0.07162 0.40104,-0.07161 0.84505,-0.243489 z m -8.39322,-9.395823 q -0.5013,-0.429687 -1.07422,-0.716145 -0.57291,-0.286458 -1.1888,-0.458333 -0.60156,-0.186197 -1.21744,-0.257812 -0.60157,-0.08594 -1.17448,-0.08594 -1.24609,0 -2.13411,0.372395 -0.8737,0.372396 -1.43229,1.059895 -0.5586,0.687499 -0.81641,1.647133 -0.25781,0.959635 -0.25781,2.134113 0,1.260415 0.38672,2.391924 0.40104,1.117186 1.11718,1.97656 0.71615,0.845051 1.73307,1.346353 1.03125,0.486978 2.27735,0.486978 0.88802,0 1.51822,-0.214843 0.63021,-0.229167 1.04557,-0.615885 0.42969,-0.401041 0.6875,-0.959634 0.25782,-0.558593 0.41537,-1.23177 0,-0.558593 0,-1.303384 0.0143,-0.759113 0.0286,-1.63281 0.0286,-0.88802 0.043,-1.8763 0.0143,-1.002603 0.043,-2.062498 z"
         id="path1146" /></g></g></svg>
